<svg xmlns="http://www.w3.org/2000/svg" width="12" height="9.391" viewBox="0 0 12 9.391">
  <path id="Check" d="M11.449.1a.816.816,0,0,0-.9.079A60.286,60.286,0,0,0,4.393,6.553C3.471,5.75,1.772,4.4,1.031,4.3a.9.9,0,0,0-.988,1.16A4.063,4.063,0,0,0,1.3,7.082l.078.071c.43.394.888.75,1.332,1.094.214.166.429.333.64.5.035.029.076.065.12.1a1.731,1.731,0,0,0,.99.538h.037A1.772,1.772,0,0,0,5.6,8.8c.039-.036.076-.069.11-.1.165-.143.355-.344.539-.539.109-.115.213-.226.3-.309.383-.371.717-.755,1.04-1.126.175-.2.352-.4.539-.609l.117-.127A36.888,36.888,0,0,0,11.06,2.667c.054-.075.131-.162.214-.257A2.484,2.484,0,0,0,12,1.148,1.1,1.1,0,0,0,11.449.1" transform="translate(0 -0.001)" fill="#25d98d"/>
</svg>
