<?xml version="1.0" encoding="utf-8"?>
<!-- Generator: Adobe Illustrator 25.4.1, SVG Export Plug-In . SVG Version: 6.00 Build 0)  -->
<svg version="1.1" id="Capa_1" xmlns="http://www.w3.org/2000/svg" xmlns:xlink="http://www.w3.org/1999/xlink" x="0px" y="0px"
	 viewBox="0 0 32 32" style="enable-background:new 0 0 32 32;" xml:space="preserve">
<style type="text/css">
	.st0{fill:#2DB9CD;}
</style>
<path id="Globe_icon" class="st0" d="M31.96,14.73c-0.02-0.24-0.04-0.48-0.08-0.72c-0.5-4.08-2.56-7.82-5.76-10.41
	c-2.36-1.97-5.25-3.2-8.31-3.54L17.18,0h-2.46l-0.75,0.09C9.54,0.65,5.56,3.04,2.99,6.68c-1.76,2.42-2.79,5.29-2.96,8.27
	c-0.45,6.8,3.47,13.14,9.76,15.77c4.33,1.84,9.25,1.68,13.46-0.42c4.16-2.12,7.2-5.94,8.32-10.48c0.14-0.62,0.24-1.24,0.31-1.87
	c0.02-0.29,0.06-0.58,0.12-0.87v-1.96L31.96,14.73z M8.45,23.46c-1.16,0.31-2.27,0.78-3.3,1.39c-1.84-2.23-2.94-4.98-3.14-7.87h5.51
	C7.57,19.17,7.89,21.35,8.45,23.46L8.45,23.46z M6.52,5.65c1.31-1.21,2.83-2.15,4.5-2.77c-0.82,1.15-1.49,2.39-1.98,3.72
	C8.16,6.37,7.32,6.05,6.52,5.65L6.52,5.65z M11.01,7.06c0.47-1.28,1.15-2.46,2.02-3.51c0.51-0.63,1.18-1.12,1.94-1.42v5.3
	C13.64,7.4,12.32,7.28,11.01,7.06L11.01,7.06z M12.68,9.29c0.61,0,1.23,0.1,1.85,0.13h0.45v5.52H9.5c0.07-2.02,0.37-4.02,0.9-5.97
	h0.47c0.6,0.15,1.21,0.25,1.83,0.31H12.68z M8.44,8.52c-0.55,2.1-0.86,4.27-0.91,6.44H2.02c0.21-2.86,1.29-5.58,3.09-7.81l0.32,0.15
	c0.43,0.23,0.89,0.46,1.34,0.63c0.46,0.17,0.94,0.35,1.4,0.5L8.44,8.52z M9.06,25.36c0.49,1.36,1.17,2.63,2.02,3.79
	c-1.66-0.67-3.2-1.62-4.55-2.8C7.33,25.92,8.18,25.59,9.06,25.36L9.06,25.36z M12.51,27.69c-0.61-0.86-1.11-1.8-1.49-2.79
	c1.31-0.22,2.63-0.35,3.96-0.4v5.33c-0.25-0.09-0.48-0.21-0.7-0.35C13.56,29.01,12.96,28.4,12.51,27.69L12.51,27.69z M9.5,17h5.48
	v5.52c-1.54,0.04-3.07,0.2-4.58,0.48C9.86,21.04,9.56,19.03,9.5,17L9.5,17z M23.57,8.51c1.16-0.3,2.28-0.77,3.31-1.37
	c1.82,2.23,2.91,4.96,3.12,7.83H24.5C24.43,12.79,24.12,10.62,23.57,8.51L23.57,8.51z M25.46,26.34c-1.3,1.19-2.82,2.13-4.48,2.74
	c0.83-1.14,1.49-2.39,1.97-3.72C23.82,25.59,24.66,25.92,25.46,26.34L25.46,26.34z M20.97,24.9c-0.48,1.37-1.22,2.63-2.18,3.72
	c-0.49,0.55-1.1,0.98-1.79,1.24v-5.33C18.33,24.57,19.66,24.69,20.97,24.9L20.97,24.9z M17.02,22.52V17h5.48
	c-0.06,2.03-0.36,4.05-0.9,6.01C20.09,22.73,18.55,22.56,17.02,22.52L17.02,22.52z M20.97,7.06c-1.31,0.21-2.63,0.34-3.95,0.37v-5.3
	c0.3,0.12,0.59,0.27,0.85,0.46c0.71,0.53,1.32,1.2,1.77,1.96C20.17,5.34,20.61,6.18,20.97,7.06L20.97,7.06z M22.97,6.61
	c-0.51-1.37-1.21-2.66-2.1-3.83c1.67,0.71,3.21,1.68,4.58,2.86c-0.79,0.42-1.63,0.75-2.5,0.98L22.97,6.61z M22.5,14.97h-5.48V9.43
	c1.53-0.04,3.06-0.2,4.57-0.47C22.13,10.92,22.44,12.94,22.5,14.97L22.5,14.97z M23.58,23.44c0.55-2.11,0.86-4.28,0.91-6.47H30
	c-0.21,2.88-1.3,5.62-3.13,7.85l-0.31-0.16c-0.43-0.23-0.89-0.46-1.34-0.64c-0.45-0.19-0.91-0.33-1.37-0.5L23.58,23.44z"/>
</svg>
