<?xml version="1.0" encoding="UTF-8"?>
<!DOCTYPE svg PUBLIC "-//W3C//DTD SVG 1.1//EN" "http://www.w3.org/Graphics/SVG/1.1/DTD/svg11.dtd">
<!-- Creator: CorelDRAW 2021 (64-Bit) -->
<svg xmlns="http://www.w3.org/2000/svg" xml:space="preserve" width="4.9786mm" height="3.8718mm"
    version="1.1"
    style="shape-rendering:geometricPrecision; text-rendering:geometricPrecision; image-rendering:optimizeQuality; fill-rule:evenodd; clip-rule:evenodd"
    viewBox="0 0 77.69 60.42"
    xmlns:xlink="http://www.w3.org/1999/xlink"
    xmlns:xodm="http://www.corel.com/coreldraw/odm/2003">
 <defs>
  <style type="text/css">
   <![CDATA[
    .fil0 {fill:#484848;fill-rule:nonzero}
   ]]>
  </style>
 </defs>
 <g id="Capa_x0020_1">
  <metadata id="CorelCorpID_0Corel-Layer"/>
  <path class="fil0" d="M38.84 -0c-10.9,0 -19.62,4.96 -25.98,10.87 -6.31,5.85 -10.53,12.87 -12.53,17.68 -0.44,1.07 -0.44,2.25 0,3.32 2,4.81 6.22,11.83 12.53,17.68 6.35,5.91 15.08,10.87 25.98,10.87 10.9,0 19.62,-4.96 25.98,-10.87 6.31,-5.87 10.53,-12.87 12.54,-17.68 0.44,-1.07 0.44,-2.25 0,-3.32 -2.01,-4.81 -6.23,-11.83 -12.54,-17.68 -6.35,-5.91 -15.08,-10.87 -25.98,-10.87zm19.42 30.21c0,10.72 -8.7,19.42 -19.42,19.42 -10.72,0 -19.42,-8.7 -19.42,-19.42 0,-10.72 8.7,-19.42 19.42,-19.42 10.72,0 19.42,8.7 19.42,19.42zm-19.42 -8.63c0,4.76 -3.87,8.63 -8.63,8.63 -1.55,0 -3.01,-0.4 -4.26,-1.13 -0.03,0.38 -0.05,0.74 -0.05,1.13 0,7.15 5.8,12.95 12.95,12.95 7.15,0 12.95,-5.8 12.95,-12.95 0,-7.15 -5.8,-12.95 -12.95,-12.95 -0.38,0 -0.76,0.01 -1.13,0.05 0.71,1.25 1.13,2.71 1.13,4.26z"/>
 </g>
</svg>