<?xml version="1.0" standalone="no"?>
<!DOCTYPE svg PUBLIC "-//W3C//DTD SVG 20010904//EN" "http://www.w3.org/TR/2001/REC-SVG-20010904/DTD/svg10.dtd">
<svg version="1.0" xmlns="http://www.w3.org/2000/svg"
    width="58.000000pt" height="58.000000pt" viewBox="0 0 58.000000 58.000000"
    preserveAspectRatio="xMidYMid meet">

    <g transform="translate(0.000000,58.000000) scale(0.100000,-0.100000)"
        fill="#000000" stroke="none">
        <path
            d="M4 387 c-2 -7 -3 -56 -2 -108 l3 -94 285 0 285 0 0 105 0 105 -283 3
c-229 2 -283 0 -288 -11z m84 -59 c2 -24 8 -38 17 -38 9 0 15 14 17 38 2 30 7
38 26 40 18 3 22 -1 22 -22 0 -19 5 -26 20 -26 15 0 20 7 20 25 0 18 5 25 20
25 17 0 20 -7 20 -40 0 -33 3 -40 20 -40 17 0 20 7 20 41 0 36 2 40 23 37 14
-2 23 -11 25 -25 2 -13 10 -23 17 -23 7 0 15 10 17 23 2 14 11 23 26 25 20 3
22 -1 22 -37 0 -34 3 -41 20 -41 17 0 20 7 20 40 l0 40 40 0 40 0 0 -80 0 -80
-250 0 -250 0 0 81 c0 78 1 80 23 77 18 -2 23 -10 25 -40z" />
    </g>
</svg>