<svg xmlns="http://www.w3.org/2000/svg" width="457.103" height="159.954" viewBox="0 0 457.103 159.954">
  <g id="Tienda-ico" transform="translate(0 0)">
    <path id="Trazado_287" data-name="Trazado 287" d="M98.183,175.448c-5-6.215-16.074-3.822-19.063,3.126a1.222,1.222,0,0,0,2.108,1.232c1.96-2.569,4.374-4.443,7.674-4.826,3-.347,5.2,1.173,7.61,2.633,1.43.868,2.6-1.01,1.67-2.164" transform="translate(-13.485 -29.341)" fill="#b4b4b4"/>
    <path id="Trazado_288" data-name="Trazado 288" d="M102.5,163.344c-.352-1.473-2.293-1.746-3.571-1.665a4.907,4.907,0,0,0-3.609,1.851,1.182,1.182,0,0,0,1.671,1.67,3.838,3.838,0,0,1,2.222-.71c.875-.015,1.6.571,2.475.283a1.183,1.183,0,0,0,.811-1.429" transform="translate(-16.22 -27.6)" fill="#b4b4b4"/>
    <path id="Trazado_289" data-name="Trazado 289" d="M284.989,79.386c.007,25.766-.647,51.65.357,77.4q-11.06.047-22.115.085c.509-4.015.217-8.2.218-12.23q0-7.506,0-15.012c0-10,.227-20.035-.219-30.025a1.384,1.384,0,0,0-.143-.568,1.166,1.166,0,0,0-1.144-1.248c-8.668-.585-17.439-.235-26.125-.233-9.043,0-18.362-.62-27.369.233a1.19,1.19,0,0,0-1.113.912,1.28,1.28,0,0,0-.263.694c-.823,9.4-.238,19.041-.231,28.47.007,9.667-.2,19.372.2,29.034q-44.327-.015-88.654.022c-1.357,0-2.712.017-4.068.035.88-25.436.138-51.018.14-76.467l0-38.753c0-12.829.564-25.825-.265-38.64,41.675.507,83.38.094,125.059.1q23.04,0,46.082.082c-1.066,25.319-.364,50.774-.357,76.112m-40.849,77.522-7.338,0c.25-9.359.284-18.723.3-28.086q.008-7.227.019-14.455c0-4.584.42-9.4-.2-13.959,7.895.046,15.845.279,23.72-.172-.392,9.366-.2,18.773-.2,28.146q0,7.506,0,15.012c0,4.44-.347,9.068.221,13.486q-8.263.024-16.526.031m-34.7-.007c.384-9.251.195-18.541.2-27.8.007-9.554.583-19.328-.172-28.865,8.2.674,16.643.168,24.859.159-.565,4.18-.206,8.571-.2,12.775q.01,7.218.02,14.436c.012,9.766.037,19.534.3,29.3l-25.005,0m159.834.168c-27.2-.488-54.431-.406-81.651-.291.986-25.337.347-50.8.357-76.152.007-25.748.726-51.617-.357-77.347,25.849.063,51.7.1,77.542-.124,1.364-.012,2.727-.048,4.091-.08-.589,25.58-.207,51.208-.214,76.793,0,10.345-.1,68.186-.158,78.547a8.321,8.321,0,0,1,3.257.041c-.058-9.958-.147-67.4-.149-77.338,0-26.238.4-52.521-.226-78.754a1.2,1.2,0,0,0-.3-.8A1.245,1.245,0,0,0,370.2.416C328.261-.429,286.244.276,244.3.278c-41.966,0-83.933-.09-125.9.04-1.678,0-3.358.042-5.036.064a1.248,1.248,0,0,0-1.209.812,1.168,1.168,0,0,0-.174.542c-.933,12.842-.354,25.882-.352,38.752l0,38.752q0,19.376,0,38.752c0,13.321-.313,26.689.17,40a1.209,1.209,0,0,0,.359.851,1.245,1.245,0,0,0,1.2.808c41.9.644,83.843.06,125.742.056s83.838.353,125.745-.078c1.644-.017,3.288-.059,4.931-.09a1.2,1.2,0,0,0,1.925-.918c.018-.522.027-1.045.043-1.567-.835-.027-1.665-.07-2.484-.125,0,.046,0,.092,0,.139" transform="translate(-19.027 0)" fill="#b4b4b4"/>
    <path id="Trazado_290" data-name="Trazado 290" d="M256.547,103.442c-5.292,0-10.842-.426-16.144.039.04-1.013.072-2.024.088-3.038.012-.791.065-1.6.022-2.4,5.356.281,10.782.053,16.139.056,5.4,0,10.956.363,16.351-.064-.044.8.01,1.618.022,2.412.015,1.055.05,2.106.093,3.158-5.482-.453-11.081-.158-16.571-.158m18.877-6.98a1.1,1.1,0,0,0-.839-.764,1.446,1.446,0,0,0-.452-.12c-5.744-.583-11.707-.158-17.48-.155-5.8,0-11.689-.273-17.48.13a1.186,1.186,0,0,0-1.165,1.236,14.693,14.693,0,0,0-.153,3.653c.018,1.254.061,2.5.117,3.754a1.222,1.222,0,0,0,.991,1.874c5.729.7,11.813.177,17.586.177,5.829,0,11.782.343,17.586-.24a1.368,1.368,0,0,0,.568-.185,1.126,1.126,0,0,0,.823-1.082c.069-1.434.117-2.862.139-4.3a12.672,12.672,0,0,0-.239-3.981" transform="translate(-40.594 -16.265)" fill="#b4b4b4"/>
    <path id="Trazado_291" data-name="Trazado 291" d="M250.865,131.2c-5.159-.8-10.726-.317-15.933-.153a1.221,1.221,0,0,0,0,2.441c5.207.164,10.774.649,15.933-.153a1.114,1.114,0,0,0,0-2.136" transform="translate(-39.906 -22.323)" fill="#b4b4b4"/>
    <path id="Trazado_292" data-name="Trazado 292" d="M250.865,138.609c-5.159-.8-10.726-.317-15.933-.153a1.221,1.221,0,0,0,0,2.441c5.207.164,10.774.649,15.933-.153a1.114,1.114,0,0,0,0-2.136" transform="translate(-39.906 -23.587)" fill="#b4b4b4"/>
    <path id="Trazado_293" data-name="Trazado 293" d="M250.865,146.013c-5.159-.8-10.726-.317-15.933-.153a1.221,1.221,0,0,0,0,2.441c5.207.164,10.774.649,15.933-.153a1.114,1.114,0,0,0,0-2.136" transform="translate(-39.906 -24.851)" fill="#b4b4b4"/>
    <path id="Trazado_294" data-name="Trazado 294" d="M283.054,131.2c-5.159-.8-10.726-.317-15.933-.153a1.221,1.221,0,0,0,0,2.441c5.207.164,10.774.649,15.933-.153a1.114,1.114,0,0,0,0-2.136" transform="translate(-45.402 -22.323)" fill="#b4b4b4"/>
    <path id="Trazado_295" data-name="Trazado 295" d="M283.054,138.609c-5.159-.8-10.726-.317-15.933-.153a1.221,1.221,0,0,0,0,2.441c5.207.164,10.774.649,15.933-.153a1.114,1.114,0,0,0,0-2.136" transform="translate(-45.402 -23.587)" fill="#b4b4b4"/>
    <path id="Trazado_296" data-name="Trazado 296" d="M283.054,146.013c-5.159-.8-10.726-.317-15.933-.153a1.221,1.221,0,0,0,0,2.441c5.207.164,10.774.649,15.933-.153a1.114,1.114,0,0,0,0-2.136" transform="translate(-45.402 -24.851)" fill="#b4b4b4"/>
    <path id="Trazado_297" data-name="Trazado 297" d="M255.691,154.2a1.141,1.141,0,0,0-2.28,0c-.059,2.883-.507,6.119.1,8.95a1.089,1.089,0,0,0,2.085,0c.6-2.831.157-6.067.1-8.95" transform="translate(-43.227 -26.138)" fill="#b4b4b4"/>
    <path id="Trazado_298" data-name="Trazado 298" d="M268.179,154.2a1.141,1.141,0,0,0-2.281,0c-.059,2.883-.507,6.119.1,8.95a1.089,1.089,0,0,0,2.085,0c.6-2.831.157-6.067.1-8.95" transform="translate(-45.359 -26.138)" fill="#b4b4b4"/>
    <path id="Trazado_299" data-name="Trazado 299" d="M528.276,189.55c-35.162-.512-70.342-.406-105.513-.357v2.962c35.175.047,70.351-.025,105.513-.537a1.034,1.034,0,0,0,0-2.067" transform="translate(-72.176 -32.292)" fill="#b4b4b4"/>
    <path id="Trazado_300" data-name="Trazado 300" d="M93.391,189.152c-30.74-.084-61.522-.478-92.245.218a1.182,1.182,0,0,0,0,2.363c30.72.7,61.492.481,92.245.315Z" transform="translate(0 -32.261)" fill="#b4b4b4"/>
    <path id="Trazado_301" data-name="Trazado 301" d="M515.077,180.012c-3.048-11.286-15.624-17.006-26.481-14.828-1.332.267-3.2,1.568-4.321.055a30.525,30.525,0,0,0-2.662-3.126,25.912,25.912,0,0,0-21.278-7.15,20.66,20.66,0,0,0-23.667-15.857,1.408,1.408,0,0,0-.121-.368c-2.4-4.793-8.3-6.9-13.464-6.528v2.9c4.272-.663,7.8,1.78,10.689,4.689l-.014,0a1.345,1.345,0,0,0,.717,2.591,18.118,18.118,0,0,1,23.148,14.7,1.556,1.556,0,0,0,1.894,1.072,23.245,23.245,0,0,1,15.832,2.953,21.368,21.368,0,0,1,6.275,5.668c.984,1.3,1.947,2.378,3.719,2.378,2.544,0,5.136-1.349,7.752-1.486a19.68,19.68,0,0,1,9.217,1.945c5.035,2.33,7.881,6.672,10.121,11.5.7,1.518,3.059.427,2.645-1.111" transform="translate(-72.23 -22.564)" fill="#b4b4b4"/>
    <path id="Trazado_302" data-name="Trazado 302" d="M476.883,176.939c-4.865-5.507-13.015-4.4-18.1-.042-4.594-5.739-14.516-4.644-18.9.83-.993,1.238.626,2.976,1.787,1.782a11.348,11.348,0,0,1,8.129-3.7c2.882-.07,4.966,1.469,7,3.167a12.436,12.436,0,0,0-1.859,3.29c-.457,1.222,1.473,1.991,2.084.877a15,15,0,0,1,2.424-3.3,1.173,1.173,0,0,0,.2-.194,12.569,12.569,0,0,1,4.64-2.915c4.073-1.449,7.542.347,11.024,2.234a1.3,1.3,0,0,0,1.573-2.033" transform="translate(-75.046 -29.548)" fill="#b4b4b4"/>
    <path id="Trazado_303" data-name="Trazado 303" d="M446.327,172.3c-.07-2.528-2.44-4.94-4.785-5.711a7.774,7.774,0,0,0-8.091,1.886c-1.026.976.411,2.324,1.479,1.535a6.252,6.252,0,0,1,5.219-1c2.133.511,2.815,2.284,3.96,3.856.639.877,2.255.736,2.219-.566" transform="translate(-73.94 -28.367)" fill="#b4b4b4"/>
    <path id="Trazado_304" data-name="Trazado 304" d="M94.888,118.806c-8.571-5.234-20.418.565-23.405,9.606-8.9-2.528-20.189,6.085-21.868,14.585,0,.021,0,.04-.006.061C40.1,142.24,31.3,149.714,28.99,158.851c-11.085-1.664-23.29,6.481-22.575,18.61.083,1.406,2.384,1.9,2.608.352.675-4.683,1.953-8.551,5.41-11.958,3.981-3.922,10.025-5.043,15.322-3.777a1.532,1.532,0,0,0,1.873-1.061,18.35,18.35,0,0,1,7.383-11.936c4.2-3.037,9.188-3.356,14.169-3.008,1.335.094,1.465-1.839.3-2.223q-.519-.172-1.037-.308c1.792-3.847,3.7-7.013,7.318-9.545s8.828-4.046,13.083-2.4c1.216.472,2.013-1.266,1.2-2.062a16.823,16.823,0,0,1,7.246-8.3c4.055-2.273,8.557-1.655,12.861-.683a.959.959,0,0,0,.738-1.746" transform="translate(-1.09 -19.945)" fill="#b4b4b4"/>
    <path id="Trazado_305" data-name="Trazado 305" d="M88.26,157.539c-2.952-2.194-7.6-1.1-10.392.817a10.036,10.036,0,0,0-4.113,8.55,13.075,13.075,0,0,0-13.574,6.323,1.269,1.269,0,0,0,2.191,1.277c3.814-5.84,11.157-6.484,16.249-1.889a1.43,1.43,0,0,0,2.024-2.018,12.846,12.846,0,0,0-4.116-2.854,8,8,0,0,1,3.434-7.255c2.462-1.684,4.981-.918,7.657-.594,1.4.17,1.515-1.707.64-2.358" transform="translate(-10.242 -26.689)" fill="#b4b4b4"/>
  </g>
</svg>
